<svg xmlns="http://www.w3.org/2000/svg" viewBox="0 0 512 512" width="100%" height="100%">
  <circle cx="256" cy="256" r="240" fill="#ffffff" stroke="#e0e0e0" stroke-width="8"/>

  <path d="M160 300 C100 380, 180 440, 240 400 C280 370, 220 320, 160 300 Z" fill="#2d6a4f" />
  <path d="M160 300 Q200 360 240 400" stroke="#1b4332" stroke-width="4" fill="none" />

  <path d="M220 350 Q230 380 210 410" stroke="#2d6a4f" stroke-width="12" stroke-linecap="round" fill="none"/>

  <path d="M256 256 C140 130, 220 70, 256 120 C292 70, 372 130, 256 256 Z" fill="#ffccd5" />
  <path d="M256 256 C382 140, 442 220, 392 256 C442 292, 382 372, 256 256 Z" fill="#ffb3c1" />
  <path d="M256 256 C372 372, 292 442, 256 392 C220 442, 140 372, 256 256 Z" fill="#ffccd5" />
  <path d="M256 256 C130 382, 70 302, 120 256 C70 210, 130 130, 256 256 Z" fill="#ffb3c1" />
  
  <circle cx="256" cy="256" r="10" fill="#ffb3c1"/>

  <path d="M256 256 M256 200 C220 220, 220 290, 256 256 Z" fill="#c30010"/>
  <path d="M256 256 M312 256 C290 220, 220 220, 256 256 Z" fill="#c30010"/>
  <path d="M256 256 M256 312 C280 290, 290 220, 256 256 Z" fill="#a60000"/>
  <path d="M256 256 M200 256 C220 290, 290 290, 256 256 Z" fill="#a60000"/>
  <circle cx="256" cy="256" r="35" fill="#95000e" />

  <path d="M256 256 L290 180" stroke="#fff3b0" stroke-width="10" stroke-linecap="round" />
  <circle cx="290" cy="180" r="12" fill="#fff3b0" />
  <circle cx="282" cy="190" r="6" fill="#neon-yellow" />
  <circle cx="295" cy="172" r="5" fill="#ffea75" />
</svg>
